<svg xmlns="http://www.w3.org/2000/svg">
    <!--user-icon-->
    <symbol id="user-icon" viewBox="0 0 512 512">
        <path d="M256,0C114.844,0,0,114.844,0,256s114.844,256,256,256s256-114.844,256-256S397.156,0,256,0z M256,74.667    c67.635,0,122.667,55.031,122.667,122.667S323.635,320,256,320s-122.667-55.031-122.667-122.667S188.365,74.667,256,74.667z     M256,469.333c-69.707,0-131.52-33.755-170.473-85.615c42.676-20.534,103.621-42.385,170.473-42.385    c66.857,0,127.807,21.854,170.474,42.383C387.521,435.577,325.708,469.333,256,469.333z"/>
    </symbol>

    <!--basket-icon-->
    <symbol id="basket-icon" viewBox="0 0 512 512">
        <path d="m497 181h-52.791l-115.496-144.37c-5.174-6.467-14.613-7.518-21.083-2.342-6.469 5.175-7.518 14.614-2.342 21.083l100.503 125.629h-299.582l100.504-125.629c5.175-6.469 4.126-15.909-2.342-21.083-6.47-5.176-15.909-4.126-21.083 2.342l-115.497 144.37h-52.791c-8.284 0-15 6.716-15 15v30c0 8.284 6.716 15 15 15h482c8.284 0 15-6.716 15-15v-30c0-8.284-6.716-15-15-15z"/>
        <path d="m90.577 470.121c1.84 6.44 7.726 10.879 14.423 10.879h302c6.697 0 12.583-4.439 14.423-10.879l56.891-199.121h-444.628zm234.127-66.586 15-90c1.362-8.172 9.09-13.696 17.262-12.33 8.172 1.362 13.692 9.09 12.33 17.262l-15 90c-1.223 7.337-7.578 12.537-14.778 12.537-.819 0-1.649-.067-2.484-.207-8.172-1.362-13.692-9.091-12.33-17.262zm-83.704-87.535c0-8.284 6.716-15 15-15s15 6.716 15 15v90c0 8.284-6.716 15-15 15s-15-6.716-15-15zm-84.966-14.795c8.173-1.361 15.9 4.158 17.262 12.33l15 90c1.362 8.171-4.158 15.9-12.33 17.262-.834.139-1.665.207-2.484.207-7.201 0-13.555-5.199-14.778-12.537l-15-90c-1.362-8.172 4.158-15.901 12.33-17.262z"/>
    </symbol>

    <!--search-icon-->
    <symbol id="search-icon" viewBox="0 0 512 512">
        <path d="M505.749,475.587l-145.6-145.6c28.203-34.837,45.184-79.104,45.184-127.317c0-111.744-90.923-202.667-202.667-202.667    S0,90.925,0,202.669s90.923,202.667,202.667,202.667c48.213,0,92.48-16.981,127.317-45.184l145.6,145.6    c4.16,4.16,9.621,6.251,15.083,6.251s10.923-2.091,15.083-6.251C514.091,497.411,514.091,483.928,505.749,475.587z M202.667,362.669c-88.235,0-160-71.765-160-160s71.765-160,160-160s160,71.765,160,160S290.901,362.669,202.667,362.669z"/>
    </symbol>

    <!--right-arrow-icon-->
    <symbol id="right-arrow-icon" viewBox="0 0 55.752 55.752">
        <path d="M43.006,23.916c-0.28-0.282-0.59-0.52-0.912-0.727L20.485,1.581c-2.109-2.107-5.527-2.108-7.637,0.001   c-2.109,2.108-2.109,5.527,0,7.637l18.611,18.609L12.754,46.535c-2.11,2.107-2.11,5.527,0,7.637c1.055,1.053,2.436,1.58,3.817,1.58   s2.765-0.527,3.817-1.582l21.706-21.703c0.322-0.207,0.631-0.444,0.912-0.727c1.08-1.08,1.598-2.498,1.574-3.912   C44.605,26.413,44.086,24.993,43.006,23.916z"/>
    </symbol>

    <!--tg-icon-->
    <symbol id="tg-icon" viewBox="0 0 24 24">
        <path d="m12 24c6.629 0 12-5.371 12-12s-5.371-12-12-12-12 5.371-12 12 5.371 12 12 12zm-6.509-12.26 11.57-4.461c.537-.194 1.006.131.832.943l.001-.001-1.97 9.281c-.146.658-.537.818-1.084.508l-3-2.211-1.447 1.394c-.16.16-.295.295-.605.295l.213-3.053 5.56-5.023c.242-.213-.054-.333-.373-.121l-6.871 4.326-2.962-.924c-.643-.204-.657-.643.136-.953z"/>
    </symbol>

    <!--vk-icon-->
    <symbol id="vk-icon" viewBox="0 0 304.36 304.36">
        <path d="M261.945,175.576c10.096,9.857,20.752,19.131,29.807,29.982 c4,4.822,7.787,9.798,10.684,15.394c4.105,7.955,0.387,16.709-6.746,17.184l-44.34-0.02c-11.436,0.949-20.559-3.655-28.23-11.474 c-6.139-6.253-11.824-12.908-17.727-19.372c-2.42-2.642-4.953-5.128-7.979-7.093c-6.053-3.929-11.307-2.726-14.766,3.587 c-3.523,6.421-4.322,13.531-4.668,20.687c-0.475,10.441-3.631,13.186-14.119,13.664c-22.414,1.057-43.686-2.334-63.447-13.641 c-17.422-9.968-30.932-24.04-42.691-39.971C34.828,153.482,17.295,119.395,1.537,84.353C-2.01,76.458,0.584,72.22,9.295,72.07 c14.465-0.281,28.928-0.261,43.41-0.02c5.879,0.086,9.771,3.458,12.041,9.012c7.826,19.243,17.402,37.551,29.422,54.521 c3.201,4.518,6.465,9.036,11.113,12.216c5.142,3.521,9.057,2.354,11.476-3.374c1.535-3.632,2.207-7.544,2.553-11.434 c1.146-13.383,1.297-26.743-0.713-40.079c-1.234-8.323-5.922-13.711-14.227-15.286c-4.238-0.803-3.607-2.38-1.555-4.799 c3.564-4.172,6.916-6.769,13.598-6.769h50.111c7.889,1.557,9.641,5.101,10.721,13.039l0.043,55.663 c-0.086,3.073,1.535,12.192,7.07,14.226c4.43,1.448,7.35-2.096,10.008-4.905c11.998-12.734,20.561-27.783,28.211-43.366 c3.395-6.852,6.314-13.968,9.143-21.078c2.096-5.276,5.385-7.872,11.328-7.757l48.229,0.043c1.43,0,2.877,0.021,4.262,0.258 c8.127,1.385,10.354,4.881,7.844,12.817c-3.955,12.451-11.65,22.827-19.174,33.251c-8.043,11.129-16.645,21.877-24.621,33.072 C252.26,161.544,252.842,166.697,261.945,175.576L261.945,175.576z M261.945,175.576"/>
    </symbol>

    <!--ig-icon-->
    <symbol id="ig-icon" viewBox="0 0 24 24">
        <path d="m12.004 5.838c-3.403 0-6.158 2.758-6.158 6.158 0 3.403 2.758 6.158 6.158 6.158 3.403 0 6.158-2.758 6.158-6.158 0-3.403-2.758-6.158-6.158-6.158zm0 10.155c-2.209 0-3.997-1.789-3.997-3.997s1.789-3.997 3.997-3.997 3.997 1.789 3.997 3.997c.001 2.208-1.788 3.997-3.997 3.997z"/>
        <path d="m16.948.076c-2.208-.103-7.677-.098-9.887 0-1.942.091-3.655.56-5.036 1.941-2.308 2.308-2.013 5.418-2.013 9.979 0 4.668-.26 7.706 2.013 9.979 2.317 2.316 5.472 2.013 9.979 2.013 4.624 0 6.22.003 7.855-.63 2.223-.863 3.901-2.85 4.065-6.419.104-2.209.098-7.677 0-9.887-.198-4.213-2.459-6.768-6.976-6.976zm3.495 20.372c-1.513 1.513-3.612 1.378-8.468 1.378-5 0-7.005.074-8.468-1.393-1.685-1.677-1.38-4.37-1.38-8.453 0-5.525-.567-9.504 4.978-9.788 1.274-.045 1.649-.06 4.856-.06l.045.03c5.329 0 9.51-.558 9.761 4.986.057 1.265.07 1.645.07 4.847-.001 4.942.093 6.959-1.394 8.453z"/>
        <circle cx="18.406" cy="5.595" r="1.439"/>
    </symbol>

    <!--down-arrow-icon-->
    <symbol id="down-arrow-icon" viewBox="0 0 451.847 451.847">
        <path d="M225.923,354.706c-8.098,0-16.195-3.092-22.369-9.263L9.27,151.157c-12.359-12.359-12.359-32.397,0-44.751   c12.354-12.354,32.388-12.354,44.748,0l171.905,171.915l171.906-171.909c12.359-12.354,32.391-12.354,44.744,0   c12.365,12.354,12.365,32.392,0,44.751L248.292,345.449C242.115,351.621,234.018,354.706,225.923,354.706z"/>
    </symbol>

    <!--offers slider button-->
    <symbol id="slider-arrow-icon" viewBox="0 0 512 512">
        <path d="M256,0C114.618,0,0,114.618,0,256s114.618,256,256,256s256-114.618,256-256S397.382,0,256,0z M256,469.333 c-117.818,0-213.333-95.515-213.333-213.333S138.182,42.667,256,42.667S469.333,138.182,469.333,256S373.818,469.333,256,469.333     z"/>
        <path d="M228.418,134.248c-8.331-8.331-21.839-8.331-30.17,0c-8.331,8.331-8.331,21.839,0,30.17L289.83,256l-91.582,91.582 c-8.331,8.331-8.331,21.839,0,30.17c8.331,8.331,21.839,8.331,30.17,0l106.667-106.667c8.331-8.331,8.331-21.839,0-30.17     L228.418,134.248z"/>
    </symbol>

    <symbol id="catalog-filters-button-icon" viewBox="0 0 460.054 460.054">
        <g>
            <path d="M40.003,69.679C17.914,69.679,0,87.592,0,109.697c0,22.089,17.914,39.987,40.003,39.987    c22.089,0,40.003-17.898,40.003-39.987C80.006,87.592,62.092,69.679,40.003,69.679z"/>
        </g>
        <g>
            <path d="M40.003,190.032C17.914,190.032,0,207.93,0,230.035c0,22.089,17.914,40.002,40.003,40.002    c22.089,0,40.003-17.913,40.003-40.002C80.006,207.93,62.092,190.032,40.003,190.032z"/>
        </g>
        <g>
            <path d="M40.003,310.37C17.914,310.37,0,328.283,0,350.372c0,22.089,17.914,40.003,40.003,40.003    c22.089,0,40.003-17.914,40.003-40.003C80.006,328.283,62.092,310.37,40.003,310.37z"/>
        </g>
        <g>
            <path d="M429.973,79.601H145.419c-16.611,0-30.081,13.47-30.081,30.096c0,16.612,13.469,30.081,30.081,30.081h284.554    c16.61,0,30.081-13.469,30.081-30.081C460.054,93.071,446.583,79.601,429.973,79.601z"/>
        </g>
        <g>
            <path d="M429.973,199.939H145.419c-16.611,0-30.081,13.469-30.081,30.096c0,16.612,13.469,30.081,30.081,30.081h284.554    c16.61,0,30.081-13.469,30.081-30.081C460.054,213.408,446.583,199.939,429.973,199.939z"/>
        </g>
        <g>
            <path d="M429.973,320.291H145.419c-16.611,0-30.081,13.469-30.081,30.081c0,16.611,13.469,30.08,30.081,30.08h284.554    c16.61,0,30.081-13.469,30.081-30.08C460.054,333.759,446.583,320.291,429.973,320.291z"/>
        </g>
    </symbol>
    <!--ascending sort in catalog-->
    <symbol id="ascending-sort-icon" viewBox="0 0 511.627 511.627">
        <g>
            <path d="M333.584,438.536h-73.087c-2.666,0-4.853,0.855-6.567,2.573c-1.709,1.711-2.568,3.901-2.568,6.564v54.815    c0,2.673,0.855,4.853,2.568,6.571c1.715,1.711,3.901,2.566,6.567,2.566h73.087c2.666,0,4.856-0.855,6.563-2.566    c1.718-1.719,2.563-3.898,2.563-6.571v-54.815c0-2.663-0.846-4.854-2.563-6.564C338.44,439.392,336.25,438.536,333.584,438.536z"/>
            <path d="M196.54,401.991h-54.817V9.136c0-2.663-0.854-4.856-2.568-6.567C137.441,0.859,135.254,0,132.587,0H77.769    c-2.663,0-4.856,0.855-6.567,2.568c-1.709,1.715-2.568,3.905-2.568,6.567v392.855H13.816c-4.184,0-7.04,1.902-8.564,5.708    c-1.525,3.621-0.855,6.95,1.997,9.996l91.361,91.365c2.094,1.707,4.281,2.562,6.567,2.562c2.474,0,4.665-0.855,6.567-2.562    l91.076-91.078c1.906-2.279,2.856-4.571,2.856-6.844c0-2.676-0.859-4.859-2.568-6.584    C201.395,402.847,199.208,401.991,196.54,401.991z"/>
            <path d="M388.4,292.362H260.494c-2.666,0-4.853,0.855-6.567,2.566c-1.71,1.711-2.568,3.901-2.568,6.563v54.823    c0,2.662,0.855,4.853,2.568,6.563c1.714,1.711,3.901,2.566,6.567,2.566H388.4c2.666,0,4.855-0.855,6.563-2.566    c1.715-1.711,2.573-3.901,2.573-6.563v-54.823c0-2.662-0.858-4.853-2.573-6.563C393.256,293.218,391.066,292.362,388.4,292.362z"/>
            <path d="M504.604,2.568C502.889,0.859,500.702,0,498.036,0H260.497c-2.666,0-4.853,0.855-6.567,2.568    c-1.709,1.715-2.568,3.905-2.568,6.567v54.818c0,2.666,0.855,4.853,2.568,6.567c1.715,1.709,3.901,2.568,6.567,2.568h237.539    c2.666,0,4.853-0.855,6.567-2.568c1.711-1.714,2.566-3.901,2.566-6.567V9.136C507.173,6.473,506.314,4.279,504.604,2.568z"/>
            <path d="M443.22,146.181H260.494c-2.666,0-4.853,0.855-6.567,2.57c-1.71,1.713-2.568,3.9-2.568,6.567v54.816    c0,2.667,0.855,4.854,2.568,6.567c1.714,1.711,3.901,2.57,6.567,2.57H443.22c2.663,0,4.853-0.855,6.57-2.57    c1.708-1.713,2.563-3.9,2.563-6.567v-54.816c0-2.667-0.855-4.858-2.563-6.567C448.069,147.04,445.879,146.181,443.22,146.181z"/>
        </g>
    </symbol>

    <!--descending sort in catalog-->
    <symbol id="descending-sort-icon" viewBox="0 0 511.627 511.627">
        <g>
            <path d="M260.494,219.271H388.4c2.666,0,4.855-0.855,6.563-2.57c1.715-1.713,2.573-3.9,2.573-6.567v-54.816    c0-2.667-0.858-4.854-2.573-6.567c-1.708-1.711-3.897-2.57-6.563-2.57H260.494c-2.666,0-4.853,0.855-6.567,2.57    c-1.71,1.713-2.568,3.9-2.568,6.567v54.816c0,2.667,0.855,4.854,2.568,6.567C255.641,218.413,257.828,219.271,260.494,219.271z"/>
            <path d="M260.497,73.089h73.087c2.666,0,4.856-0.855,6.563-2.568c1.718-1.714,2.563-3.901,2.563-6.567V9.136    c0-2.663-0.846-4.853-2.563-6.567C338.44,0.859,336.25,0,333.584,0h-73.087c-2.666,0-4.853,0.855-6.567,2.568    c-1.709,1.715-2.568,3.905-2.568,6.567v54.818c0,2.666,0.855,4.853,2.568,6.567C255.645,72.23,257.831,73.089,260.497,73.089z"/>
            <path d="M196.54,401.991h-54.817V9.136c0-2.663-0.854-4.856-2.568-6.567C137.441,0.859,135.254,0,132.587,0H77.769    c-2.663,0-4.856,0.855-6.567,2.568c-1.709,1.715-2.568,3.905-2.568,6.567v392.855H13.816c-4.184,0-7.04,1.902-8.564,5.708    c-1.525,3.621-0.855,6.95,1.997,9.996l91.361,91.365c2.094,1.707,4.281,2.562,6.567,2.562c2.474,0,4.665-0.855,6.567-2.562    l91.076-91.078c1.906-2.279,2.856-4.571,2.856-6.844c0-2.676-0.859-4.859-2.568-6.584    C201.395,402.847,199.208,401.991,196.54,401.991z"/>
            <path d="M504.604,441.109c-1.715-1.718-3.901-2.573-6.567-2.573H260.497c-2.666,0-4.853,0.855-6.567,2.573    c-1.709,1.711-2.568,3.901-2.568,6.564v54.815c0,2.673,0.855,4.853,2.568,6.571c1.715,1.711,3.901,2.566,6.567,2.566h237.539    c2.666,0,4.853-0.855,6.567-2.566c1.711-1.719,2.566-3.898,2.566-6.571v-54.815C507.173,445.011,506.314,442.82,504.604,441.109z"/>
            <path d="M260.494,365.445H443.22c2.663,0,4.853-0.855,6.57-2.566c1.708-1.711,2.563-3.901,2.563-6.563v-54.823    c0-2.662-0.855-4.853-2.563-6.563c-1.718-1.711-3.907-2.566-6.57-2.566H260.494c-2.666,0-4.853,0.855-6.567,2.566    c-1.71,1.711-2.568,3.901-2.568,6.563v54.823c0,2.662,0.855,4.853,2.568,6.563C255.641,364.59,257.828,365.445,260.494,365.445z"/>
        </g>
    </symbol>

    <!--star-->
    <symbol id="star-icon" viewBox="0 0 406.125 406.125">
        <g>
            <path  d="M260.133,155.967c-4.487,0-9.25-3.463-10.64-7.73L205.574,13.075c-1.39-4.268-3.633-4.268-5.023,0
		L156.64,148.237c-1.39,4.268-6.153,7.73-10.64,7.73H3.88c-4.487,0-5.186,2.138-1.553,4.78l114.971,83.521
		c3.633,2.642,5.454,8.242,4.064,12.51L77.452,391.932c-1.39,4.268,0.431,5.592,4.064,2.951l114.971-83.521
		c3.633-2.642,9.519-2.642,13.152,0l114.971,83.529c3.633,2.642,5.454,1.317,4.064-2.951l-43.911-135.154
		c-1.39-4.268,0.431-9.868,4.064-12.51l114.971-83.521c3.633-2.642,2.934-4.78-1.553-4.78H260.133V155.967z"/>
        </g>
    </symbol>

    <!--delete-basket-->
    <symbol id="delete-basket-icon" viewBox="0 0 510 510">
        <g id="XMLID_1473_">
            <path id="XMLID_1476_" d="m118.832 467.243c1.193 24.006 20.863 42.757 44.944 42.757h182.447c24.081 0 43.753-18.75 44.944-42.757l26.28-302.243h-324.895zm181.168-227.243h30v165h-30zm-60 0h30v165h-30zm-60 0h30v165h-30z"/>
            <path id="XMLID_1481_" d="m330 75v-30c0-24.812-20.186-45-45-45h-60c-24.812 0-45 20.188-45 45v30h-120v60h390v-60zm-120 0v-30c0-8.271 6.73-15 15-15h60c8.272 0 15 6.729 15 15v30z"/></g>
    </symbol>
</svg>